<svg width="176" height="29" viewBox="0 0 176 29" fill="none" xmlns="http://www.w3.org/2000/svg">
<path d="M8.424 21.48C9.024 21.48 9.528 21.408 9.936 21.264C10.344 21.12 10.668 20.928 10.908 20.688C11.156 20.448 11.332 20.168 11.436 19.848C11.548 19.528 11.604 19.188 11.604 18.828C11.604 18.452 11.544 18.116 11.424 17.82C11.304 17.516 11.116 17.26 10.86 17.052C10.604 16.836 10.272 16.672 9.864 16.56C9.464 16.448 8.98 16.392 8.412 16.392H5.16V21.48H8.424ZM5.16 9.144V14.16H7.728C8.832 14.16 9.664 13.96 10.224 13.56C10.792 13.16 11.076 12.524 11.076 11.652C11.076 10.748 10.82 10.104 10.308 9.72C9.796 9.336 8.996 9.144 7.908 9.144H5.16ZM7.908 6.648C9.044 6.648 10.016 6.756 10.824 6.972C11.632 7.188 12.292 7.496 12.804 7.896C13.324 8.296 13.704 8.78 13.944 9.348C14.184 9.916 14.304 10.556 14.304 11.268C14.304 11.676 14.244 12.068 14.124 12.444C14.004 12.812 13.816 13.16 13.56 13.488C13.312 13.808 12.992 14.1 12.6 14.364C12.216 14.628 11.756 14.852 11.22 15.036C13.604 15.572 14.796 16.86 14.796 18.9C14.796 19.636 14.656 20.316 14.376 20.94C14.096 21.564 13.688 22.104 13.152 22.56C12.616 23.008 11.956 23.36 11.172 23.616C10.388 23.872 9.492 24 8.484 24H1.932V6.648H7.908ZM24.7129 21.396C25.3369 21.396 25.8929 21.292 26.3809 21.084C26.8769 20.876 27.2929 20.584 27.6289 20.208C27.9649 19.832 28.2209 19.376 28.3969 18.84C28.5809 18.304 28.6729 17.704 28.6729 17.04V6.648H31.9009V17.04C31.9009 18.072 31.7329 19.028 31.3969 19.908C31.0689 20.78 30.5929 21.536 29.9689 22.176C29.3529 22.808 28.6009 23.304 27.7129 23.664C26.8249 24.016 25.8249 24.192 24.7129 24.192C23.5929 24.192 22.5889 24.016 21.7009 23.664C20.8129 23.304 20.0569 22.808 19.4329 22.176C18.8169 21.536 18.3409 20.78 18.0049 19.908C17.6769 19.028 17.5129 18.072 17.5129 17.04V6.648H20.7409V17.028C20.7409 17.692 20.8289 18.292 21.0049 18.828C21.1889 19.364 21.4489 19.824 21.7849 20.208C22.1289 20.584 22.5449 20.876 23.0329 21.084C23.5289 21.292 24.0889 21.396 24.7129 21.396ZM50.9494 15.324C50.9494 16.596 50.7374 17.764 50.3134 18.828C49.8894 19.892 49.2934 20.808 48.5254 21.576C47.7574 22.344 46.8334 22.94 45.7534 23.364C44.6734 23.788 43.4734 24 42.1534 24H35.5414V6.648H42.1534C43.4734 6.648 44.6734 6.864 45.7534 7.296C46.8334 7.72 47.7574 8.316 48.5254 9.084C49.2934 9.844 49.8894 10.756 50.3134 11.82C50.7374 12.884 50.9494 14.052 50.9494 15.324ZM47.6374 15.324C47.6374 14.372 47.5094 13.52 47.2534 12.768C47.0054 12.008 46.6414 11.368 46.1614 10.848C45.6894 10.32 45.1134 9.916 44.4334 9.636C43.7614 9.356 43.0014 9.216 42.1534 9.216H38.7814V21.432H42.1534C43.0014 21.432 43.7614 21.292 44.4334 21.012C45.1134 20.732 45.6894 20.332 46.1614 19.812C46.6414 19.284 47.0054 18.644 47.2534 17.892C47.5094 17.132 47.6374 16.276 47.6374 15.324ZM68.1032 15.3V22.32C67.2232 22.968 66.2832 23.444 65.2832 23.748C64.2912 24.044 63.2272 24.192 62.0912 24.192C60.6752 24.192 59.3912 23.972 58.2392 23.532C57.0952 23.092 56.1152 22.48 55.2992 21.696C54.4912 20.912 53.8672 19.976 53.4272 18.888C52.9872 17.8 52.7672 16.612 52.7672 15.324C52.7672 14.02 52.9792 12.824 53.4032 11.736C53.8272 10.648 54.4272 9.712 55.2032 8.928C55.9872 8.144 56.9352 7.536 58.0472 7.104C59.1592 6.672 60.4072 6.456 61.7912 6.456C62.4952 6.456 63.1512 6.512 63.7592 6.624C64.3752 6.736 64.9432 6.892 65.4632 7.092C65.9912 7.284 66.4712 7.52 66.9032 7.8C67.3352 8.08 67.7312 8.388 68.0912 8.724L67.1672 10.188C67.0232 10.42 66.8352 10.564 66.6032 10.62C66.3712 10.668 66.1192 10.608 65.8472 10.44C65.5832 10.288 65.3192 10.136 65.0552 9.984C64.7912 9.832 64.4952 9.7 64.1672 9.588C63.8472 9.476 63.4832 9.384 63.0752 9.312C62.6752 9.24 62.2112 9.204 61.6832 9.204C60.8272 9.204 60.0512 9.348 59.3552 9.636C58.6672 9.924 58.0792 10.336 57.5912 10.872C57.1032 11.408 56.7272 12.052 56.4632 12.804C56.1992 13.556 56.0672 14.396 56.0672 15.324C56.0672 16.316 56.2072 17.204 56.4872 17.988C56.7752 18.764 57.1752 19.424 57.6872 19.968C58.2072 20.504 58.8312 20.916 59.5592 21.204C60.2872 21.484 61.0992 21.624 61.9952 21.624C62.6352 21.624 63.2072 21.556 63.7112 21.42C64.2152 21.284 64.7072 21.1 65.1872 20.868V17.724H63.0032C62.7952 17.724 62.6312 17.668 62.5112 17.556C62.3992 17.436 62.3432 17.292 62.3432 17.124V15.3H68.1032ZM74.4533 9.216V14.028H80.5253V16.512H74.4533V21.42H82.1573V24H71.2133V6.648H82.1573V9.216H74.4533ZM97.1379 9.3H91.9059V24H88.6779V9.3H83.4459V6.648H97.1379V9.3Z" fill="#5E5E66"/>
<path d="M100.597 14.076C101.149 13.404 101.777 12.868 102.481 12.468C103.193 12.068 103.989 11.868 104.869 11.868C105.525 11.868 106.101 11.972 106.597 12.18C107.101 12.388 107.517 12.688 107.845 13.08C108.173 13.472 108.421 13.944 108.589 14.496C108.757 15.048 108.841 15.672 108.841 16.368V24H107.689V16.368C107.689 15.248 107.433 14.372 106.921 13.74C106.409 13.1 105.629 12.78 104.581 12.78C103.805 12.78 103.077 12.98 102.397 13.38C101.725 13.772 101.125 14.32 100.597 15.024V24H99.4446V6.54H100.597V14.076ZM119.324 18.228C118.188 18.268 117.208 18.36 116.384 18.504C115.568 18.64 114.892 18.828 114.356 19.068C113.828 19.308 113.436 19.596 113.18 19.932C112.924 20.26 112.796 20.636 112.796 21.06C112.796 21.46 112.86 21.808 112.988 22.104C113.124 22.392 113.3 22.632 113.516 22.824C113.74 23.008 113.996 23.144 114.284 23.232C114.572 23.32 114.872 23.364 115.184 23.364C115.648 23.364 116.072 23.316 116.456 23.22C116.848 23.116 117.208 22.976 117.536 22.8C117.872 22.616 118.184 22.4 118.472 22.152C118.76 21.904 119.044 21.636 119.324 21.348V18.228ZM112.304 13.752C112.928 13.128 113.584 12.656 114.272 12.336C114.96 12.016 115.74 11.856 116.612 11.856C117.252 11.856 117.812 11.96 118.292 12.168C118.772 12.368 119.168 12.66 119.48 13.044C119.8 13.42 120.04 13.88 120.2 14.424C120.36 14.96 120.44 15.56 120.44 16.224V24H119.984C119.744 24 119.596 23.888 119.54 23.664L119.372 22.128C119.044 22.448 118.716 22.736 118.388 22.992C118.068 23.248 117.732 23.464 117.38 23.64C117.028 23.816 116.648 23.952 116.24 24.048C115.832 24.144 115.384 24.192 114.896 24.192C114.488 24.192 114.092 24.132 113.708 24.012C113.324 23.892 112.98 23.708 112.676 23.46C112.38 23.212 112.14 22.896 111.956 22.512C111.78 22.12 111.692 21.652 111.692 21.108C111.692 20.604 111.836 20.136 112.124 19.704C112.412 19.272 112.864 18.896 113.48 18.576C114.096 18.256 114.884 18 115.844 17.808C116.812 17.616 117.972 17.504 119.324 17.472V16.224C119.324 15.12 119.084 14.272 118.604 13.68C118.132 13.08 117.428 12.78 116.492 12.78C115.916 12.78 115.424 12.86 115.016 13.02C114.616 13.18 114.276 13.356 113.996 13.548C113.716 13.74 113.488 13.916 113.312 14.076C113.136 14.236 112.988 14.316 112.868 14.316C112.78 14.316 112.708 14.296 112.652 14.256C112.596 14.216 112.548 14.164 112.508 14.1L112.304 13.752ZM125.357 14.148C125.909 13.46 126.545 12.908 127.265 12.492C127.993 12.076 128.801 11.868 129.689 11.868C130.345 11.868 130.921 11.972 131.417 12.18C131.921 12.388 132.337 12.688 132.665 13.08C132.993 13.472 133.241 13.944 133.409 14.496C133.577 15.048 133.661 15.672 133.661 16.368V24H132.509V16.368C132.509 15.248 132.253 14.372 131.741 13.74C131.229 13.1 130.449 12.78 129.401 12.78C128.625 12.78 127.897 12.98 127.217 13.38C126.545 13.772 125.945 14.32 125.417 15.024V24H124.265V12.06H124.901C125.101 12.06 125.217 12.16 125.249 12.36L125.357 14.148ZM145.608 14.628C145.152 13.94 144.644 13.456 144.084 13.176C143.532 12.896 142.9 12.756 142.188 12.756C141.484 12.756 140.868 12.884 140.34 13.14C139.812 13.396 139.368 13.76 139.008 14.232C138.656 14.696 138.388 15.256 138.204 15.912C138.028 16.56 137.94 17.276 137.94 18.06C137.94 19.836 138.264 21.144 138.912 21.984C139.568 22.816 140.512 23.232 141.744 23.232C142.528 23.232 143.244 23.028 143.892 22.62C144.54 22.212 145.112 21.64 145.608 20.904V14.628ZM146.748 6.54V24H146.124C145.916 24 145.796 23.896 145.764 23.688L145.644 21.804C145.116 22.524 144.5 23.096 143.796 23.52C143.092 23.944 142.3 24.156 141.42 24.156C139.948 24.156 138.804 23.648 137.988 22.632C137.172 21.616 136.764 20.092 136.764 18.06C136.764 17.188 136.876 16.376 137.1 15.624C137.332 14.864 137.668 14.208 138.108 13.656C138.548 13.096 139.088 12.656 139.728 12.336C140.376 12.016 141.12 11.856 141.96 11.856C142.768 11.856 143.468 12.004 144.06 12.3C144.652 12.596 145.168 13.036 145.608 13.62V6.54H146.748ZM151.939 6.54V24H150.787V6.54H151.939ZM164.352 16.824C164.352 16.184 164.26 15.612 164.076 15.108C163.9 14.596 163.648 14.164 163.32 13.812C162.992 13.46 162.6 13.192 162.144 13.008C161.696 12.816 161.2 12.72 160.656 12.72C160.04 12.72 159.488 12.816 159 13.008C158.512 13.2 158.088 13.476 157.728 13.836C157.376 14.196 157.092 14.628 156.876 15.132C156.66 15.636 156.516 16.2 156.444 16.824H164.352ZM156.384 17.556V17.784C156.384 18.68 156.488 19.468 156.696 20.148C156.904 20.828 157.2 21.4 157.584 21.864C157.968 22.32 158.432 22.664 158.976 22.896C159.52 23.128 160.128 23.244 160.8 23.244C161.4 23.244 161.92 23.18 162.36 23.052C162.8 22.916 163.168 22.768 163.464 22.608C163.768 22.44 164.008 22.292 164.184 22.164C164.36 22.028 164.488 21.96 164.568 21.96C164.672 21.96 164.752 22 164.808 22.08L165.12 22.464C164.928 22.704 164.672 22.928 164.352 23.136C164.04 23.344 163.688 23.524 163.296 23.676C162.912 23.82 162.496 23.936 162.048 24.024C161.608 24.112 161.164 24.156 160.716 24.156C159.9 24.156 159.156 24.016 158.484 23.736C157.812 23.448 157.236 23.032 156.756 22.488C156.276 21.944 155.904 21.28 155.64 20.496C155.384 19.704 155.256 18.8 155.256 17.784C155.256 16.928 155.376 16.14 155.616 15.42C155.864 14.692 156.216 14.068 156.672 13.548C157.136 13.02 157.7 12.608 158.364 12.312C159.036 12.016 159.796 11.868 160.644 11.868C161.316 11.868 161.94 11.984 162.516 12.216C163.092 12.448 163.592 12.788 164.016 13.236C164.44 13.676 164.772 14.22 165.012 14.868C165.26 15.516 165.384 16.26 165.384 17.1C165.384 17.276 165.36 17.396 165.312 17.46C165.264 17.524 165.184 17.556 165.072 17.556H156.384ZM169.583 14.94C169.767 14.452 169.975 14.02 170.207 13.644C170.447 13.26 170.719 12.936 171.023 12.672C171.335 12.408 171.679 12.208 172.055 12.072C172.439 11.928 172.863 11.856 173.327 11.856C173.575 11.856 173.819 11.88 174.059 11.928C174.299 11.968 174.511 12.044 174.695 12.156L174.599 12.948C174.559 13.076 174.483 13.14 174.371 13.14C174.275 13.14 174.127 13.112 173.927 13.056C173.735 13 173.479 12.972 173.159 12.972C172.695 12.972 172.283 13.044 171.923 13.188C171.571 13.324 171.251 13.532 170.963 13.812C170.683 14.092 170.435 14.44 170.219 14.856C170.011 15.264 169.819 15.736 169.643 16.272V24H168.491V12.06H169.103C169.239 12.06 169.335 12.088 169.391 12.144C169.447 12.2 169.483 12.296 169.499 12.432L169.583 14.94Z" fill="#191824"/>
</svg>
